<svg xmlns="http://www.w3.org/2000/svg" viewBox="0 0 16 16" shape-rendering="crispEdges"><rect width="16" height="16" fill="#050d07"/><rect x="4" y="1" width="1" height="1" fill="#1e9a44"/><rect x="11" y="1" width="1" height="1" fill="#1e9a44"/><rect x="4" y="2" width="1" height="1" fill="#1e9a44"/><rect x="9" y="2" width="6" height="1" fill="#3bff70"/><rect x="2" y="3" width="5" height="1" fill="#3bff70"/><rect x="9" y="3" width="6" height="1" fill="#3bff70"/><rect x="4" y="4" width="1" height="1" fill="#1e9a44"/><rect x="11" y="4" width="1" height="1" fill="#1e9a44"/><rect x="2" y="5" width="5" height="1" fill="#3bff70"/><rect x="9" y="5" width="6" height="1" fill="#3bff70"/><rect x="4" y="6" width="1" height="1" fill="#1e9a44"/><rect x="11" y="6" width="1" height="1" fill="#1e9a44"/><rect x="2" y="7" width="5" height="1" fill="#3bff70"/><rect x="9" y="7" width="6" height="1" fill="#3bff70"/><rect x="4" y="8" width="1" height="1" fill="#1e9a44"/><rect x="11" y="8" width="1" height="1" fill="#1e9a44"/><rect x="2" y="9" width="5" height="1" fill="#3bff70"/><rect x="9" y="9" width="6" height="1" fill="#3bff70"/><rect x="4" y="10" width="1" height="1" fill="#1e9a44"/><rect x="11" y="10" width="1" height="1" fill="#1e9a44"/><rect x="1" y="11" width="14" height="1" fill="#1e9a44"/><rect x="1" y="12" width="14" height="1" fill="#1e9a44"/><rect x="2" y="13" width="12" height="1" fill="#1e9a44"/><rect x="3" y="14" width="10" height="1" fill="#1e9a44"/><rect x="0" y="15" width="1" height="1" fill="#0d4020"/><rect x="2" y="15" width="1" height="1" fill="#0d4020"/><rect x="4" y="15" width="1" height="1" fill="#0d4020"/><rect x="6" y="15" width="1" height="1" fill="#0d4020"/><rect x="8" y="15" width="1" height="1" fill="#0d4020"/><rect x="10" y="15" width="1" height="1" fill="#0d4020"/><rect x="12" y="15" width="1" height="1" fill="#0d4020"/><rect x="14" y="15" width="1" height="1" fill="#0d4020"/></svg>